HIERARCHY
ROOT Hips
{
	OFFSET 0.000000 0.000000 0.000000
	CHANNELS 6 Xposition Yposition Zposition Zrotation Yrotation Xrotation 
	JOINT LowerBack
	{
		OFFSET 0.000000 0.000000 0.000000
		CHANNELS 3 Zrotation Yrotation Xrotation
		JOINT Spine
		{
			OFFSET 0.028270 2.035590 -0.193380
			CHANNELS 3 Zrotation Yrotation Xrotation
			JOINT Spine1
			{
				OFFSET 0.056720 2.048850 -0.042750
				CHANNELS 3 Zrotation Yrotation Xrotation
				JOINT Neck
				{
					OFFSET 0.000000 0.000000 0.000000
					CHANNELS 3 Zrotation Yrotation Xrotation
					JOINT Neck1
					{
						OFFSET -0.054170 1.746240 0.172020
						CHANNELS 3 Zrotation Yrotation Xrotation
						JOINT Head
						{
							OFFSET 0.104070 1.761360 -0.123970
							CHANNELS 3 Zrotation Yrotation Xrotation
							End Site
							{
								OFFSET 0.000000 0.000000 0.000000
							}
						}
					}
				}
				JOINT LeftShoulder
				{
					OFFSET 0.000000 0.000000 0.000000
					CHANNELS 3 Zrotation Yrotation Xrotation
					JOINT LeftArm
					{
						OFFSET 3.362410 1.200890 -0.311210
						CHANNELS 3 Zrotation Yrotation Xrotation
						JOINT LeftForeArm
						{
							OFFSET 4.983000 -0.000000 -0.000000
							CHANNELS 3 Zrotation Yrotation Xrotation
							JOINT LeftHand
							{
								OFFSET 3.483560 -0.000000 -0.000000
								CHANNELS 3 Zrotation Yrotation Xrotation
								JOINT LeftFingerBase
								{
									OFFSET 0.000000 0.000000 0.000000
									CHANNELS 3 Zrotation Yrotation Xrotation
									JOINT LeftHandIndex1
									{
										OFFSET 0.715260 -0.000000 -0.000000
										CHANNELS 3 Zrotation Yrotation Xrotation
										End Site
										{
											OFFSET 0.000000 0.000000 0.000000
										}
									}
								}
								JOINT LThumb
								{
									OFFSET 0.000000 0.000000 0.000000
									CHANNELS 3 Zrotation Yrotation Xrotation
									End Site
									{
										OFFSET 0.000000 0.000000 0.000000
									}
								}
							}
						}
					}
				}
				JOINT RightShoulder
				{
					OFFSET 0.000000 0.000000 0.000000
					CHANNELS 3 Zrotation Yrotation Xrotation
					JOINT RightArm
					{
						OFFSET -3.136600 1.374050 -0.404650
						CHANNELS 3 Zrotation Yrotation Xrotation
						JOINT RightForeArm
						{
							OFFSET -5.241900 -0.000000 -0.000000
							CHANNELS 3 Zrotation Yrotation Xrotation
							JOINT RightHand
							{
								OFFSET -3.444170 -0.000000 -0.000000
								CHANNELS 3 Zrotation Yrotation Xrotation
								JOINT RightFingerBase
								{
									OFFSET 0.000000 0.000000 0.000000
									CHANNELS 3 Zrotation Yrotation Xrotation
									JOINT RightHandIndex1
									{
										OFFSET -0.622530 -0.000000 -0.000000
										CHANNELS 3 Zrotation Yrotation Xrotation
										End Site
										{
											OFFSET 0.000000 0.000000 0.000000
										}
									}
								}
								JOINT RThumb
								{
									OFFSET 0.000000 0.000000 0.000000
									CHANNELS 3 Zrotation Yrotation Xrotation
									End Site
									{
										OFFSET 0.000000 0.000000 0.000000
									}
								}
							}
						}
					}
				}
			}
		}
	}
}
}
MOTION
Frames: 17
Frame Time: 0.008333
1.093486 16.915749 0.176282 -21.418564 -81.488023 9.894571 -7.364604 -2.656965 1.392500 -1.848916 -2.292832 -2.101644 -4.240273 -2.260940 1.530145 7.285783 -22.502958 -7.916942 -0.030962 0.007429 -0.064465 0.000000 0.000000 0.000000 10.104328 17.890566 -0.312159 -59.326617 26.719618 6.389713 -2.924246 -45.964879 -0.000139 -6.998785 1.186812 -0.071547 -0.050988 0.001777 -0.000000 0.000000 0.000000 0.000000 0.000000 0.000000 0.000000 3.827392 -18.556321 -0.737792 66.811877 -12.765307 14.878024 2.125271 42.150348 0.010742 1.246163 6.030320 0.063115 0.074657 -0.077499 -0.000000 0.000000 0.000000 0.000000 0.000000 0.000000 0.000000 
1.091279 16.924642 0.214018 -22.372177 -80.843082 10.649666 -7.408125 -2.739209 1.480900 -1.874698 -2.381629 -2.088862 -4.308856 -2.346187 1.488313 7.233693 -22.400095 -7.892567 -0.049946 0.005760 -0.060209 0.000000 0.000000 0.000000 10.358254 17.627832 -0.367046 -58.906950 26.838613 7.092868 -2.797373 -47.229998 0.000356 -6.992069 1.186706 -0.071367 -0.043867 0.004962 -0.000000 0.000000 0.000000 0.000000 0.000000 0.000000 0.000000 3.841275 -18.477522 -0.689846 67.420989 -13.175062 13.992258 2.219391 41.007474 0.011128 1.407563 6.064480 0.072012 0.076581 -0.074525 -0.000000 0.000000 0.000000 0.000000 0.000000 0.000000 0.000000 
1.090916 16.933096 0.250328 -23.413501 -80.183112 11.490349 -7.430606 -2.827387 1.589280 -1.896860 -2.477931 -2.072561 -4.381498 -2.438662 1.443211 7.199104 -22.304393 -7.876770 -0.070179 0.004165 -0.058454 0.000000 0.000000 0.000000 10.612153 17.335544 -0.422384 -58.497334 26.953300 7.763568 -2.670775 -48.506711 0.000919 -6.987851 1.166262 -0.069989 -0.036544 0.008607 -0.000000 0.000000 0.000000 0.000000 0.000000 0.000000 0.000000 3.875113 -18.407762 -0.638448 68.033487 -13.565553 13.076717 2.313024 39.891860 0.011456 1.566679 6.068406 0.080508 0.078515 -0.071586 -0.000000 0.000000 0.000000 0.000000 0.000000 0.000000 0.000000 
1.092013 16.941413 0.284973 -24.526715 -79.526932 12.436467 -7.432655 -2.920373 1.680327 -1.914981 -2.579995 -2.059326 -4.457029 -2.537292 1.400134 7.180732 -22.223234 -7.870071 -0.089727 0.002776 -0.058977 0.000000 0.000000 0.000000 10.862797 17.027912 -0.477871 -58.097952 27.057640 8.398567 -2.546073 -49.776544 0.001524 -6.983957 1.136385 -0.068013 -0.029145 0.012620 -0.000000 0.000000 0.000000 0.000000 0.000000 0.000000 0.000000 3.919882 -18.355312 -0.583277 68.656086 -13.908948 12.134787 2.409301 38.765923 0.011814 1.736544 6.092721 0.089805 0.080401 -0.068955 -0.000000 0.000000 0.000000 0.000000 0.000000 0.000000 0.000000 
1.095275 16.948947 0.318346 -25.704797 -78.862760 13.434253 -7.404701 -3.018147 1.805418 -1.927249 -2.688864 -2.039801 -4.534987 -2.642287 1.354481 7.177338 -22.149906 -7.873192 -0.110781 0.001466 -0.062391 0.000000 0.000000 0.000000 11.103833 16.697022 -0.531268 -57.723120 27.145348 8.980308 -2.425884 -51.019334 0.002165 -6.985260 1.092114 -0.065138 -0.021742 0.016939 -0.000000 0.000000 0.000000 0.000000 0.000000 0.000000 0.000000 3.983183 -18.312526 -0.526590 69.268140 -14.223244 11.183860 2.501981 37.697695 0.012110 1.902876 6.093859 0.098601 0.082148 -0.066501 -0.000000 0.000000 0.000000 0.000000 0.000000 0.000000 0.000000 
1.100471 16.955966 0.350469 -26.930406 -78.206248 14.486255 -7.346892 -3.119033 1.941950 -1.933322 -2.802422 -2.017978 -4.613937 -2.751953 1.309369 7.187056 -22.091065 -7.885454 -0.132915 0.000234 -0.068273 0.000000 0.000000 0.000000 11.329883 16.354088 -0.582266 -57.375558 27.211264 9.504309 -2.311916 -52.216328 0.002816 -6.991085 1.039933 -0.061864 -0.014462 0.021448 -0.000000 0.000000 0.000000 0.000000 0.000000 0.000000 0.000000 4.063035 -18.286396 -0.469798 69.858964 -14.494158 10.258793 2.590038 36.684377 0.012371 2.057113 6.089733 0.106696 0.083799 -0.064313 -0.000000 0.000000 0.000000 0.000000 0.000000 0.000000 0.000000 
1.108325 16.962121 0.381791 -28.218437 -77.560842 15.583945 -7.247952 -3.221824 2.113352 -1.930674 -2.920137 -1.989409 -4.692727 -2.865409 1.264223 7.203666 -22.039680 -7.905964 -0.156571 -0.000962 -0.076588 0.000000 0.000000 0.000000 11.529180 16.005161 -0.628986 -57.064015 27.245822 9.960256 -2.205865 -53.350949 0.003460 -7.000574 0.984122 -0.058290 -0.007447 0.026030 -0.000000 0.000000 0.000000 0.000000 0.000000 0.000000 0.000000 4.152718 -18.269451 -0.414353 70.427163 -14.716923 9.358372 2.672443 35.736665 0.012598 2.199777 6.084877 0.114191 0.085275 -0.062455 -0.000000 0.000000 0.000000 0.000000 0.000000 0.000000 0.000000 
1.118156 16.967786 0.412375 -29.513513 -76.939959 16.689429 -7.116549 -3.324735 2.298690 -1.920750 -3.039420 -1.957903 -4.769524 -2.980452 1.221251 7.224164 -21.999927 -7.931076 -0.181774 -0.002208 -0.086117 0.000000 0.000000 0.000000 11.697200 15.656868 -0.671956 -56.786744 27.247587 10.351677 -2.108999 -54.406028 0.004081 -7.012834 0.926954 -0.054716 -0.000805 0.030555 -0.000000 0.000000 0.000000 0.000000 0.000000 0.000000 0.000000 4.250786 -18.266113 -0.362158 70.963977 -14.892867 8.503973 2.747981 34.862369 0.012791 2.325700 6.077530 0.120686 0.086607 -0.060889 -0.000000 0.000000 0.000000 0.000000 0.000000 0.000000 0.000000 
1.130597 16.972852 0.442069 -30.782125 -76.361122 17.770496 -6.962362 -3.427578 2.498111 -1.905007 -3.159440 -1.922838 -4.842842 -3.096200 1.183365 7.243523 -21.966096 -7.958498 -0.207286 -0.003446 -0.096292 0.000000 0.000000 0.000000 11.829071 15.321413 -0.710314 -56.548574 27.210113 10.670728 -2.021868 -55.371591 0.004664 -7.023796 0.877212 -0.051542 0.005336 0.034907 -0.000000 0.000000 0.000000 0.000000 0.000000 0.000000 0.000000 4.344276 -18.271975 -0.313751 71.485647 -14.994376 7.679118 2.820040 34.015408 0.013042 2.445751 6.113470 0.127782 0.087775 -0.059836 -0.000000 0.000000 0.000000 0.000000 0.000000 0.000000 0.000000 
1.145719 16.977216 0.471692 -32.082773 -75.823272 18.860229 -6.765332 -3.526846 2.732651 -1.879429 -3.277640 -1.880784 -4.911551 -3.209880 1.147933 7.255077 -21.932684 -7.984447 -0.234975 -0.004892 -0.106231 0.000000 0.000000 0.000000 11.913904 14.999656 -0.743568 -56.355049 27.129651 10.918381 -1.945463 -56.235048 0.005196 -7.032196 0.832884 -0.048765 0.010837 0.038975 -0.000000 0.000000 0.000000 0.000000 0.000000 0.000000 0.000000 4.433307 -18.279876 -0.271753 71.971372 -15.041909 6.919205 2.883614 33.246203 0.013261 2.535522 6.148546 0.133277 0.088862 -0.059050 -0.000000 0.000000 0.000000 0.000000 0.000000 0.000000 0.000000 
1.163575 16.980950 0.501201 -33.391031 -75.340056 19.937559 -6.534224 -3.621258 2.995401 -1.845519 -3.392029 -1.832845 -4.974341 -3.319627 1.116546 7.254571 -21.895402 -8.004555 -0.264186 -0.006577 -0.114728 0.000000 0.000000 0.000000 11.949532 14.698338 -0.772246 -56.205440 27.005190 11.097975 -1.879657 -56.990466 0.005668 -7.034020 0.798079 -0.046386 0.015614 0.042667 -0.000000 0.000000 0.000000 0.000000 0.000000 0.000000 0.000000 4.508985 -18.286043 -0.236897 72.430767 -15.025676 6.211022 2.940978 32.526887 0.013491 2.602220 6.201500 0.138073 0.089878 -0.058586 -0.000000 0.000000 0.000000 0.000000 0.000000 0.000000 0.000000 
1.184130 16.984030 0.530959 -34.740532 -74.915013 21.025864 -6.260571 -3.708154 3.293496 -1.801558 -3.500118 -1.777880 -5.030445 -3.422925 1.088708 7.237532 -21.849547 -8.014866 -0.295405 -0.008610 -0.120784 0.000000 0.000000 0.000000 11.932887 14.421122 -0.796692 -56.101905 26.835382 11.214556 -1.824366 -57.633131 0.006070 -7.026455 0.773325 -0.044703 0.019581 0.045910 -0.000000 0.000000 0.000000 0.000000 0.000000 0.000000 0.000000 4.567288 -18.285172 -0.210452 72.858887 -14.951911 5.568873 2.991036 31.866062 0.013704 2.635719 6.258157 0.141068 0.090896 -0.058321 -0.000000 0.000000 0.000000 0.000000 0.000000 0.000000 0.000000 
1.206837 16.986815 0.560289 -36.037790 -74.563788 22.057558 -5.977372 -3.789170 3.601399 -1.753787 -3.601674 -1.720176 -5.078616 -3.519855 1.067486 7.203050 -21.791664 -8.010146 -0.326739 -0.010942 -0.122817 0.000000 0.000000 0.000000 11.870369 14.169153 -0.818763 -56.035587 26.631238 11.275788 -1.778475 -58.168870 0.006399 -7.006771 0.762172 -0.043719 0.022768 0.048654 -0.000000 0.000000 0.000000 0.000000 0.000000 0.000000 0.000000 4.597385 -18.276158 -0.191687 73.281217 -14.803499 4.943511 3.040077 31.197171 0.014006 2.664269 6.363039 0.144966 0.091875 -0.058430 -0.000000 0.000000 0.000000 0.000000 0.000000 0.000000 0.000000 
1.232025 16.988979 0.590160 -37.410261 -74.275465 23.126261 -5.648723 -3.859968 3.945315 -1.695392 -3.693853 -1.655636 -5.119304 -3.607365 1.049154 7.146889 -21.715867 -7.988433 -0.360055 -0.013745 -0.120552 0.000000 0.000000 0.000000 11.756921 13.943435 -0.838309 -56.012622 26.388422 11.288982 -1.741655 -58.597820 0.006652 -6.974020 0.761109 -0.043330 0.025119 0.050889 -0.000000 0.000000 0.000000 0.000000 0.000000 0.000000 0.000000 4.601394 -18.250469 -0.182054 73.677295 -14.603387 4.372008 3.083840 30.568763 0.014290 2.664567 6.467839 0.147263 0.092902 -0.058624 -0.000000 0.000000 0.000000 0.000000 0.000000 0.000000 0.000000 
1.259399 16.990578 0.620705 -38.873562 -74.047822 24.248645 -5.273285 -3.919727 4.323025 -1.626245 -3.775563 -1.584861 -5.152703 -3.684470 1.033346 7.069238 -21.619389 -7.947684 -0.395371 -0.017052 -0.113472 0.000000 0.000000 0.000000 11.597004 13.743794 -0.856210 -56.031073 26.111996 11.262990 -1.712850 -58.928851 0.006830 -6.927961 0.769144 -0.043437 0.026678 0.052624 -0.000000 0.000000 0.000000 0.000000 0.000000 0.000000 0.000000 4.578730 -18.205124 -0.181419 74.046296 -14.356845 3.857226 3.122955 29.977507 0.014552 2.638235 6.566843 0.147960 0.093998 -0.058816 -0.000000 0.000000 0.000000 0.000000 0.000000 0.000000 0.000000 
1.288095 16.991940 0.651101 -40.329587 -73.886916 25.360371 -4.886309 -3.971856 4.701502 -1.553089 -3.848349 -1.513628 -5.178185 -3.753095 1.022365 6.972764 -21.503492 -7.884805 -0.430702 -0.020762 -0.100509 0.000000 0.000000 0.000000 11.401725 13.565324 -0.874983 -56.078521 25.822239 11.209894 -1.690370 -59.180269 0.006941 -6.871021 0.785310 -0.044041 0.027621 0.053889 0.000000 0.000000 0.000000 0.000000 0.000000 0.000000 0.000000 4.523842 -18.143921 -0.188319 74.408174 -14.053817 3.356209 3.163371 29.364261 0.014886 2.615501 6.700595 0.149458 0.095101 -0.059159 -0.000000 0.000000 0.000000 0.000000 0.000000 0.000000 0.000000 
1.318236 16.992718 0.682236 -41.892655 -73.774427 26.552778 -4.454000 -4.013346 5.101996 -1.469796 -3.910502 -1.438742 -5.197437 -3.811404 1.012656 6.859236 -21.366906 -7.802112 -0.468075 -0.024976 -0.082525 0.000000 0.000000 0.000000 11.172732 13.408126 -0.894022 -56.160202 25.516636 11.137267 -1.673399 -59.363315 0.006991 -6.806046 0.805267 -0.044744 0.027998 0.054745 0.000000 0.000000 0.000000 0.000000 0.000000 0.000000 0.000000 4.447887 -18.062646 -0.203340 74.736169 -13.720869 2.927998 3.199614 28.793750 0.015171 2.570644 6.815319 0.149256 0.096277 -0.059332 -0.000000 0.000000 0.000000 0.000000 0.000000 0.000000 0.000000 
